<svg width="24" height="24" viewBox="0 0 24 24" xmlns="http://www.w3.org/2000/svg">
    <path d="M13.215 2.835c1.42.003 1.775.017 2.565.053.975.045 1.642.2 2.225.427a4.494 4.494 0 0 1 1.623 1.057c.51.51.824 1.02 1.058 1.623.226.584.381 1.25.426 2.226.036.79.05 1.145.054 2.564v2.43a46.754 46.754 0 0 1-.054 2.565c-.045.975-.2 1.642-.426 2.225a4.493 4.493 0 0 1-1.058 1.623c-.51.51-1.02.824-1.623 1.058-.583.226-1.25.381-2.225.426-.79.036-1.146.05-2.565.054h-2.43a47.002 47.002 0 0 1-2.565-.054c-.975-.045-1.642-.2-2.225-.426a4.494 4.494 0 0 1-1.623-1.058 4.495 4.495 0 0 1-1.058-1.623c-.226-.583-.381-1.25-.426-2.225-.036-.79-.05-1.146-.053-2.565v-2.43a46.99 46.99 0 0 1 .053-2.564c.045-.976.2-1.642.426-2.226a4.497 4.497 0 0 1 1.058-1.623c.51-.51 1.02-.823 1.623-1.057.583-.227 1.25-.382 2.225-.427.79-.036 1.146-.05 2.565-.053zm-.228 1.65h-1.974c-.996.002-1.494.008-1.935.022l-.186.006-.596.025c-.894.041-1.38.19-1.702.316a2.84 2.84 0 0 0-1.054.686c-.321.32-.52.626-.686 1.054-.126.323-.275.808-.316 1.702l-.022.503-.01.28c-.013.44-.019.938-.02 1.934v1.974c.001.997.007 1.494.02 1.935l.01.28.022.502c.041.894.19 1.38.316 1.703.166.427.365.733.686 1.054.32.32.626.519 1.054.685.323.126.808.275 1.702.316l.502.022.187.006c.466.016.96.023 2.028.025h1.974a67.145 67.145 0 0 0 1.935-.021l.28-.01.502-.022c.894-.04 1.38-.19 1.702-.316a2.838 2.838 0 0 0 1.055-.685c.32-.321.519-.627.685-1.054.126-.323.275-.809.316-1.703l.025-.596.006-.186c.015-.473.02-1.01.022-2.156v-1.531a74.056 74.056 0 0 0-.022-2.156l-.006-.187a64.853 64.853 0 0 0-.025-.596c-.04-.894-.19-1.38-.316-1.702a2.84 2.84 0 0 0-.685-1.054c-.321-.321-.627-.52-1.055-.686-.322-.125-.808-.275-1.702-.316a77.61 77.61 0 0 0-.502-.022l-.28-.01c-.441-.013-.938-.019-1.935-.02zM12 7.294a4.707 4.707 0 1 1 0 9.415 4.707 4.707 0 0 1 0-9.415zm0 1.651a3.056 3.056 0 1 0 0 6.112 3.056 3.056 0 0 0 0-6.112zm4.893-2.937a1.1 1.1 0 1 1 0 2.2 1.1 1.1 0 0 1 0-2.2z" fill="#000" fill-rule="evenodd"/>
</svg>
