<svg role="img" aria-label="좋아요 활성화" width="24" height="24" viewBox="0 0 24 24" xmlns="http://www.w3.org/2000/svg"><path d="M15.87 4.005a5.019 5.019 0 0 0-3.703 1.904L12 6.131l-.012-.018A5.024 5.024 0 0 0 7.895 4C5.078 4 2.8 6.37 2.8 9.286c0 1.196.384 2.331 1.081 3.257l.123.157.129.151c1.105 1.344 3.405 3.466 6.903 6.37a1.682 1.682 0 0 0 2.174-.02l1.011-.879c3.143-2.749 5.075-4.628 5.82-5.67l.073-.104c.162-.211.313-.446.447-.696l.127-.254a.755.755 0 0 0 .055-.124 5.36 5.36 0 0 0 .457-2.188C21.2 6.37 18.922 4 16.105 4l-.235.005z" fill="#6200f0" fill-rule="nonzero"></path></svg>